<svg xmlns="http://www.w3.org/2000/svg" xmlns:xlink="http://www.w3.org/1999/xlink" width="136.445" height="51.128" viewBox="0 0 136.445 51.128">
  <defs>
    <filter id="Path_11580" x="52.971" y="0.429" width="38.961" height="43.669" filterUnits="userSpaceOnUse">
      <feOffset dy="3" input="SourceAlpha"/>
      <feGaussianBlur stdDeviation="3" result="blur"/>
      <feFlood flood-opacity="0.161"/>
      <feComposite operator="in" in2="blur"/>
      <feComposite in="SourceGraphic"/>
    </filter>
    <filter id="Path_11581" x="0" y="0" width="26.161" height="43.772" filterUnits="userSpaceOnUse">
      <feOffset dy="3" input="SourceAlpha"/>
      <feGaussianBlur stdDeviation="3" result="blur-2"/>
      <feFlood flood-opacity="0.161"/>
      <feComposite operator="in" in2="blur-2"/>
      <feComposite in="SourceGraphic"/>
    </filter>
    <filter id="Path_11582" x="29.741" y="6.443" width="40.954" height="37.381" filterUnits="userSpaceOnUse">
      <feOffset dy="3" input="SourceAlpha"/>
      <feGaussianBlur stdDeviation="3" result="blur-3"/>
      <feFlood flood-opacity="0.161"/>
      <feComposite operator="in" in2="blur-3"/>
      <feComposite in="SourceGraphic"/>
    </filter>
    <filter id="Path_11585" x="95.46" y="6.443" width="40.954" height="37.381" filterUnits="userSpaceOnUse">
      <feOffset dy="3" input="SourceAlpha"/>
      <feGaussianBlur stdDeviation="3" result="blur-4"/>
      <feFlood flood-opacity="0.161"/>
      <feComposite operator="in" in2="blur-4"/>
      <feComposite in="SourceGraphic"/>
    </filter>
    <filter id="Path_11583" x="8.66" y="6.443" width="38.652" height="37.518" filterUnits="userSpaceOnUse">
      <feOffset dy="3" input="SourceAlpha"/>
      <feGaussianBlur stdDeviation="3" result="blur-5"/>
      <feFlood flood-opacity="0.161"/>
      <feComposite operator="in" in2="blur-5"/>
      <feComposite in="SourceGraphic"/>
    </filter>
    <filter id="Path_11584" x="74.379" y="6.443" width="38.652" height="37.518" filterUnits="userSpaceOnUse">
      <feOffset dy="3" input="SourceAlpha"/>
      <feGaussianBlur stdDeviation="3" result="blur-6"/>
      <feFlood flood-opacity="0.161"/>
      <feComposite operator="in" in2="blur-6"/>
      <feComposite in="SourceGraphic"/>
    </filter>
    <filter id="Path_11586" x="0.05" y="27.569" width="136.395" height="23.559" filterUnits="userSpaceOnUse">
      <feOffset dy="3" input="SourceAlpha"/>
      <feGaussianBlur stdDeviation="3" result="blur-7"/>
      <feFlood flood-opacity="0.161"/>
      <feComposite operator="in" in2="blur-7"/>
      <feComposite in="SourceGraphic"/>
    </filter>
  </defs>
  <g id="logo" transform="translate(-6073 -5397)">
    <g id="Group_9958" data-name="Group 9958" transform="translate(6082 5403)">
      <g transform="matrix(1, 0, 0, 1, -9, -6)" filter="url(#Path_11580)">
        <path id="Path_11580-2" data-name="Path 11580" d="M-83.051-50.506V-59.2H-90.68v25.429h7.629v-2.646a5.668,5.668,0,0,0,5.326,2.886c4.467,0,8.007-3.677,8.007-9.931s-3.539-9.931-8.007-9.931A5.668,5.668,0,0,0-83.051-50.506Zm5.6,7.044c0,2.131-1.237,3.264-2.818,3.264s-2.818-1.134-2.818-3.264,1.237-3.264,2.818-3.264S-77.45-45.592-77.45-43.462Z" transform="translate(152.65 65.63)" fill="#fff"/>
      </g>
      <g transform="matrix(1, 0, 0, 1, -9, -6)" filter="url(#Path_11581)">
        <path id="Path_11581-2" data-name="Path 11581" d="M-36.28-33.428h8.161V-59.2H-36.28Z" transform="translate(45.28 65.2)" fill="#5bbf5f"/>
      </g>
      <g transform="matrix(1, 0, 0, 1, -9, -6)" filter="url(#Path_11582)">
        <path id="Path_11582-2" data-name="Path 11582" d="M55.672-25.739h8.522l-7.01-9.415,6.7-9.965H55.5l-2.474,4.4-3.264-4.4H41.24l6.838,9.175L41.584-25.739h8.385l2.44-4.364Z" transform="translate(-2.5 57.56)" fill="#5bbf5f"/>
      </g>
      <g transform="matrix(1, 0, 0, 1, -9, -6)" filter="url(#Path_11585)">
        <path id="Path_11585-2" data-name="Path 11585" d="M55.672-25.739h8.522l-7.01-9.415,6.7-9.965H55.5l-2.474,4.4-3.264-4.4H41.24l6.838,9.175L41.584-25.739h8.385l2.44-4.364Z" transform="translate(63.22 57.56)" fill="#fff"/>
      </g>
      <g transform="matrix(1, 0, 0, 1, -9, -6)" filter="url(#Path_11583)">
        <path id="Path_11583-2" data-name="Path 11583" d="M9.812-45.12H2.184v10.275c0,1.856-1.031,2.99-2.715,2.99-1.649,0-2.715-1.134-2.715-2.99V-45.12H-10.84v11.237c0,5.017,2.612,8.281,7.079,8.281a6.8,6.8,0,0,0,5.945-3.093v2.955H9.812Z" transform="translate(28.5 57.56)" fill="#5bbf5f"/>
      </g>
      <g transform="matrix(1, 0, 0, 1, -9, -6)" filter="url(#Path_11584)">
        <path id="Path_11584-2" data-name="Path 11584" d="M9.812-45.12H2.184v10.275c0,1.856-1.031,2.99-2.715,2.99-1.649,0-2.715-1.134-2.715-2.99V-45.12H-10.84v11.237c0,5.017,2.612,8.281,7.079,8.281a6.8,6.8,0,0,0,5.945-3.093v2.955H9.812Z" transform="translate(94.22 57.56)" fill="#fff"/>
      </g>
    </g>
    <g transform="matrix(1, 0, 0, 1, 6073, 5397)" filter="url(#Path_11586)">
      <path id="Path_11586-2" data-name="Path 11586" d="M3.149-12.739H1.116v5.428H3.149a2.626,2.626,0,0,0,2.845-2.714A2.622,2.622,0,0,0,3.149-12.739ZM2.438-8.455V-11.61h.626a1.452,1.452,0,0,1,1.585,1.585,1.44,1.44,0,0,1-1.585,1.57ZM7.51-7.311H8.832v-5.428H7.51ZM13.1-12.8a2.649,2.649,0,0,0-2.76,2.768,2.649,2.649,0,0,0,2.768,2.76,2.658,2.658,0,0,0,2.613-1.871v-1.229H12.845V-9.4h1.678a1.3,1.3,0,0,1-1.314.959,1.43,1.43,0,0,1-1.523-1.593A1.394,1.394,0,0,1,13.1-11.579a1.137,1.137,0,0,1,1.067.557h1.461A2.409,2.409,0,0,0,13.1-12.8Zm4.129,5.489h1.322v-5.428H17.229Zm2.76-4.368h1.438v4.368h1.322v-4.368h1.438v-1.059h-4.2Zm9.34,4.368h1.4l-1.964-5.428H27.234L25.27-7.311h1.384l.325-.959H29ZM28.664-9.29H27.326l.665-1.987ZM32.1-12.739v5.428h3.054V-8.332H33.419v-4.407Zm9.409-.062a2.649,2.649,0,0,0-2.76,2.768,2.649,2.649,0,0,0,2.768,2.76,2.658,2.658,0,0,0,2.613-1.871v-1.229H41.251V-9.4h1.678a1.3,1.3,0,0,1-1.314.959,1.43,1.43,0,0,1-1.523-1.593,1.394,1.394,0,0,1,1.415-1.546,1.137,1.137,0,0,1,1.067.557h1.461A2.409,2.409,0,0,0,41.506-12.8Zm4.129,5.489h1.322v-5.428H45.635Zm5.4-1.33-1.345-4.1H48.279L50.2-7.311h1.655l1.925-5.428h-1.4Zm4.075,1.33h1.322v-5.428H55.106Zm6.587-5.428v3.363l-2.211-3.363H58.16v5.428h1.322v-3.348l2.211,3.348h1.322v-5.428Zm5.59-.062a2.649,2.649,0,0,0-2.76,2.768,2.649,2.649,0,0,0,2.768,2.76A2.658,2.658,0,0,0,69.9-9.143v-1.229H67.028V-9.4h1.678a1.3,1.3,0,0,1-1.314.959,1.43,1.43,0,0,1-1.523-1.593,1.394,1.394,0,0,1,1.415-1.546,1.137,1.137,0,0,1,1.067.557h1.461A2.409,2.409,0,0,0,67.284-12.8Zm7.863,2.49v-1.361h.719c.526,0,.75.263.75.68s-.224.68-.75.68Zm2.814-.68c0-1-.665-1.747-1.995-1.747H73.824v5.428h1.322V-9.259h.82A1.749,1.749,0,0,0,77.961-10.991Zm1.461-1.747v5.428h3.054V-8.332H80.744v-4.407Zm8.165,5.428h1.4l-1.964-5.428H85.492L83.528-7.311h1.384l.325-.959h2.026ZM86.922-9.29H85.584l.665-1.987Zm3.139-2.389H91.5v4.368h1.322v-4.368h1.438v-1.059h-4.2ZM95.7-7.311h1.322v-2.2h1.655v-1.028H97.019v-1.144h2.211v-1.059H95.7Zm10.345-2.729a2.707,2.707,0,0,0-2.776-2.776,2.724,2.724,0,0,0-2.791,2.776,2.731,2.731,0,0,0,2.791,2.783A2.718,2.718,0,0,0,106.042-10.04Zm-4.214,0a1.409,1.409,0,0,1,1.438-1.577,1.411,1.411,0,0,1,1.43,1.577,1.419,1.419,0,0,1-1.43,1.577A1.416,1.416,0,0,1,101.829-10.04Zm8.59-.936c0,.425-.232.68-.727.68h-.82v-1.345h.82C110.186-11.641,110.418-11.378,110.418-10.976Zm-2.868-1.763v5.428h1.322V-9.36h.317l1.129,2.049h1.492L110.558-9.46a1.58,1.58,0,0,0,1.206-1.57c0-.943-.665-1.709-1.995-1.709Zm5.814,5.428h1.322v-3.263l1.222,3.263h1.067l1.214-3.255v3.255h1.322v-5.428h-1.554l-1.508,3.758-1.523-3.758h-1.562Z" transform="translate(7.93 46.39)" fill="#fff"/>
    </g>
  </g>
</svg>
