<svg xmlns="http://www.w3.org/2000/svg" xmlns:xlink="http://www.w3.org/1999/xlink" width="180.001" height="64.5" viewBox="0 0 180.001 64.5">
  <defs>
    <filter id="Union_1" x="0" y="0" width="180.001" height="64.5" filterUnits="userSpaceOnUse">
      <feOffset dy="3" input="SourceAlpha"/>
      <feGaussianBlur stdDeviation="3" result="blur"/>
      <feFlood flood-opacity="0.161"/>
      <feComposite operator="in" in2="blur"/>
      <feComposite in="SourceGraphic"/>
    </filter>
  </defs>
  <g id="Group_9957" data-name="Group 9957" transform="translate(9.5 -38)">
    <g transform="matrix(1, 0, 0, 1, -9.5, 38)" filter="url(#Union_1)">
      <path id="Union_1-2" data-name="Union 1" d="M-9958-5682.5a3.5,3.5,0,0,1-3.5-3.5v-33a3.5,3.5,0,0,1,3.5-3.5h128.6l4.4-5.5,4.4,5.5h16.6a3.5,3.5,0,0,1,3.5,3.5v33a3.5,3.5,0,0,1-3.5,3.5Z" transform="translate(9971 5734.5)" fill="#fff" stroke="#e9e9e9" stroke-linecap="round" stroke-linejoin="round" stroke-width="1"/>
    </g>
    <text id="SIGN_OUT" data-name="SIGN OUT" transform="translate(64.501 75)" font-size="13" font-family="Poppins-Medium, Poppins" font-weight="500"><tspan x="-30.29" y="0">SIGN OUT</tspan></text>
    <g id="turn-off" transform="translate(-12.83 61)" opacity="0.5">
      <g id="Group_9956" data-name="Group 9956" transform="translate(21.331)">
        <g id="Group_9955" data-name="Group 9955" transform="translate(0)">
          <path id="Path_11578" data-name="Path 11578" d="M32.934,60.47a.753.753,0,0,0-.6,1.381,6.78,6.78,0,1,1-5.424,0,.753.753,0,0,0-.6-1.381,8.289,8.289,0,1,0,6.631,0Z" transform="translate(-21.331 -58.273)"/>
          <path id="Path_11579" data-name="Path 11579" d="M235.409,8.288a.753.753,0,0,0,.753-.753V.753a.753.753,0,1,0-1.507,0V7.535A.753.753,0,0,0,235.409,8.288Z" transform="translate(-227.122)"/>
        </g>
      </g>
    </g>
  </g>
</svg>
