<svg id="plus" data-name="plus" xmlns="http://www.w3.org/2000/svg" width="52.371" height="52.371" viewBox="0 0 52.371 52.371">
  <path id="Path_807" data-name="Path 807" d="M26.185,52.371A26.185,26.185,0,1,1,52.371,26.185,26.214,26.214,0,0,1,26.185,52.371Zm0-49.1A22.912,22.912,0,1,0,49.1,26.185,22.937,22.937,0,0,0,26.185,3.273Zm0,0" fill="#4aa4f2"/>
  <path id="Path_808" data-name="Path 808" d="M152.549,243.273H129.637a1.637,1.637,0,1,1,0-3.273h22.912a1.637,1.637,0,0,1,0,3.273Zm0,0" transform="translate(-114.907 -215.451)" fill="#4aa4f2"/>
  <path id="Path_809" data-name="Path 809" d="M241.637,154.185A1.637,1.637,0,0,1,240,152.549V129.637a1.637,1.637,0,1,1,3.273,0v22.912A1.637,1.637,0,0,1,241.637,154.185Zm0,0" transform="translate(-215.451 -114.907)" fill="#4aa4f2"/>
</svg>
