<svg xmlns="http://www.w3.org/2000/svg" width="10.002" height="18.958" viewBox="0 0 10.002 18.958">
  <g id="Group_9905" data-name="Group 9905" transform="translate(-185.999 -20.021)">
    <path id="Path_11567" data-name="Path 11567" d="M-.131-5.734a.375.375,0,0,0,0-.531l-4.587-4.625a.375.375,0,0,0-.531,0l-.619.619a.375.375,0,0,0,0,.531L-2.166-6l-3.7,3.741a.375.375,0,0,0,0,.531l.619.619a.375.375,0,0,0,.531,0Z" transform="translate(185 39) rotate(90)" fill="#3b3e51"/>
    <path id="Path_11568" data-name="Path 11568" d="M-.131-5.734a.375.375,0,0,0,0-.531l-4.587-4.625a.375.375,0,0,0-.531,0l-.619.619a.375.375,0,0,0,0,.531L-2.166-6l-3.7,3.741a.375.375,0,0,0,0,.531l.619.619a.375.375,0,0,0,.531,0Z" transform="translate(197 20) rotate(-90)" fill="#3b3e51"/>
  </g>
</svg>
