<svg xmlns="http://www.w3.org/2000/svg" width="23.36" height="28" viewBox="0 0 23.36 28">
  <g id="user_2_" data-name="user (2)" transform="translate(0 0)">
    <path id="Path_11574" data-name="Path 11574" d="M93.776,13.488a6.526,6.526,0,0,0,4.768-1.976,6.526,6.526,0,0,0,1.976-4.768,6.526,6.526,0,0,0-1.976-4.768,6.742,6.742,0,0,0-9.537,0,6.526,6.526,0,0,0-1.976,4.768,6.526,6.526,0,0,0,1.976,4.768A6.528,6.528,0,0,0,93.776,13.488ZM90.168,3.136a5.1,5.1,0,0,1,7.216,0,4.876,4.876,0,0,1,1.5,3.608,4.875,4.875,0,0,1-1.5,3.608,5.1,5.1,0,0,1-7.216,0,4.874,4.874,0,0,1-1.5-3.608,4.875,4.875,0,0,1,1.5-3.608Zm0,0" transform="translate(-82.272)" fill="#fff"/>
    <path id="Path_11575" data-name="Path 11575" d="M23.3,255.322a16.659,16.659,0,0,0-.227-1.769,13.94,13.94,0,0,0-.435-1.779,8.787,8.787,0,0,0-.731-1.659,6.254,6.254,0,0,0-1.1-1.437,4.862,4.862,0,0,0-1.584-1,5.474,5.474,0,0,0-2.022-.366,2.052,2.052,0,0,0-1.1.465c-.329.214-.713.462-1.142.736a6.543,6.543,0,0,1-1.477.651,5.737,5.737,0,0,1-3.614,0,6.523,6.523,0,0,1-1.476-.651c-.425-.272-.809-.519-1.143-.737a2.05,2.05,0,0,0-1.1-.465,5.468,5.468,0,0,0-2.022.366,4.858,4.858,0,0,0-1.584,1,6.255,6.255,0,0,0-1.1,1.437,8.8,8.8,0,0,0-.731,1.659,13.972,13.972,0,0,0-.435,1.779,16.544,16.544,0,0,0-.227,1.77c-.037.535-.056,1.091-.056,1.653a4.649,4.649,0,0,0,1.381,3.517,4.97,4.97,0,0,0,3.558,1.3H18.421a4.971,4.971,0,0,0,3.558-1.3,4.648,4.648,0,0,0,1.381-3.518c0-.564-.019-1.121-.057-1.654ZM20.848,259.3a3.347,3.347,0,0,1-2.427.846H4.939a3.347,3.347,0,0,1-2.427-.845,3.036,3.036,0,0,1-.871-2.329c0-.525.017-1.043.052-1.54a14.922,14.922,0,0,1,.205-1.593,12.323,12.323,0,0,1,.383-1.568,7.167,7.167,0,0,1,.6-1.349,4.636,4.636,0,0,1,.81-1.062,3.225,3.225,0,0,1,1.054-.655,3.776,3.776,0,0,1,1.292-.249c.057.031.16.089.326.2.337.22.726.471,1.156.745a8.13,8.13,0,0,0,1.854.829,7.377,7.377,0,0,0,4.623,0,8.139,8.139,0,0,0,1.856-.829c.44-.281.818-.525,1.155-.745.166-.108.268-.166.326-.2a3.778,3.778,0,0,1,1.293.249,3.23,3.23,0,0,1,1.054.655,4.624,4.624,0,0,1,.81,1.062,7.142,7.142,0,0,1,.6,1.349,12.293,12.293,0,0,1,.383,1.568,15.047,15.047,0,0,1,.205,1.594h0c.035.5.052,1.013.053,1.539a3.036,3.036,0,0,1-.872,2.329Zm0,0" transform="translate(0 -233.791)" fill="#fff"/>
  </g>
</svg>
