<svg id="Group_9934" data-name="Group 9934" xmlns="http://www.w3.org/2000/svg" width="28" height="28" viewBox="0 0 28 28">
  <path id="Path_11571" data-name="Path 11571" d="M26.73,14.118V10.182a2.54,2.54,0,0,0-2.343-2.525L20.732,1.274A2.518,2.518,0,0,0,17.277.343L4.749,7.637h-2.2A2.548,2.548,0,0,0,0,10.182V25.455A2.548,2.548,0,0,0,2.548,28H24.184a2.548,2.548,0,0,0,2.545-2.545V21.519A1.906,1.906,0,0,0,28,19.727V15.909A1.906,1.906,0,0,0,26.73,14.118ZM22.908,7.637H17.362l4.16-2.422ZM20.889,4.11,14.832,7.637H12.32l7.941-4.624ZM17.918,1.443a1.231,1.231,0,0,1,.945-.127,1.248,1.248,0,0,1,.764.591v0L9.791,7.637H7.278Zm7.539,24.012a1.274,1.274,0,0,1-1.273,1.273H2.548a1.274,1.274,0,0,1-1.273-1.273V10.182A1.274,1.274,0,0,1,2.548,8.909H24.184a1.274,1.274,0,0,1,1.273,1.273V14H21.639a3.818,3.818,0,1,0,0,7.636h3.818v3.818Zm1.273-5.727a.637.637,0,0,1-.636.636H21.639a2.545,2.545,0,0,1,0-5.091h4.454a.637.637,0,0,1,.636.636Z" transform="translate(-0.003 0)" fill="#fff"/>
  <path id="Path_11572" data-name="Path 11572" d="M342.61,277.341a1.273,1.273,0,1,0,1.273,1.273A1.274,1.274,0,0,0,342.61,277.341Z" transform="translate(-320.974 -260.795)" fill="#fff"/>
</svg>
